<svg width="37" height="22" viewBox="0 0 37 22" fill="none" xmlns="http://www.w3.org/2000/svg">
<path fill-rule="evenodd" clip-rule="evenodd" d="M20.0681 8.73163V15.5819C19.8872 15.9437 19.646 16.2693 19.3566 16.5588C18.633 17.2824 17.7526 17.6442 16.7274 17.6442C15.6902 17.6442 14.8219 17.2824 14.0983 16.5588C13.3747 15.8351 13.0129 14.9547 13.0129 13.9296V8.71957H11.9033V13.9296C11.9033 15.2683 12.3737 16.414 13.3144 17.3547C14.2551 18.2954 15.4008 18.7658 16.7395 18.7658C18.042 18.7658 19.1515 18.3196 20.0802 17.4271V18.3919H21.1897V8.73163H20.0681ZM30.5123 8.73163H29.1254L26.3153 12.615L23.4932 8.73163H22.1063L25.6159 13.5678L22.1063 18.404H23.4932L26.3153 14.5206L29.1254 18.404H30.5123L27.0028 13.5678L30.5123 8.73163Z" fill="#808080"/>
<path fill-rule="evenodd" clip-rule="evenodd" d="M34.5044 20.7316C31.6341 20.418 30.4522 18.1628 30.4522 18.1628L23.807 9.02108C23.7467 8.93666 23.6984 8.85224 23.6381 8.76782C22.2271 6.4643 20.008 6.60903 19.4412 6.62109C19.3326 6.62109 19.2241 6.63315 19.1155 6.63315C17.813 6.63315 10.5045 6.63315 5.81305 6.59697V5.08943C5.81305 4.00401 6.19898 3.07537 6.95878 2.31557C7.71858 1.55577 8.64722 1.16984 9.73264 1.16984V0C8.32159 0 7.12762 0.49447 6.12662 1.48341C5.13768 2.47235 4.64321 3.67838 4.64321 5.08943V6.58491C3.83517 6.57285 3.15979 6.57285 2.66532 6.56079L2.8824 6.24722C2.97889 6.1025 3.07537 5.96983 3.17185 5.82511C3.24421 5.71657 3.38894 5.49948 3.44924 5.39094L0 7.11556L3.44924 8.84018C3.401 8.76782 3.35276 8.69546 3.30451 8.6231L2.77386 7.82712C3.25627 7.82712 3.89547 7.83918 4.64321 7.83918V16.8361C4.64321 17.9216 4.25728 18.8502 3.49748 19.61C2.73768 20.3698 1.80904 20.7557 0.723616 20.7557V21.9256C2.13467 21.9256 3.32863 21.4311 4.32964 20.4422C5.31858 19.4532 5.81305 18.2472 5.81305 16.8361V7.85124C11.0955 7.88742 19.7306 7.93566 19.6341 7.89948C21.3105 7.7427 22.1547 8.88842 22.3959 9.28641C22.4683 9.39495 22.5407 9.51555 22.613 9.61204L23.9638 11.397L29.9698 19.6824C32.418 22.5889 36.2049 21.9376 36.2049 21.9376V20.7316H34.5044ZM1.80904 6.52461C1.80904 6.53667 1.80904 6.53667 1.80904 6.52461V6.52461Z" fill="#3CAF00"/>
<path fill-rule="evenodd" clip-rule="evenodd" d="M10.2993 6.12662V18.3919V18.5487H9.17773V2.74974H10.2993V6.12662Z" fill="#808080"/>
</svg>
