<svg width="162" height="100" viewBox="0 0 162 100" fill="none" xmlns="http://www.w3.org/2000/svg">
<path d="M86.7048 78.3078C86.5192 80.9701 86.7666 82.3942 89.5494 82.2703C92.394 82.1465 91.6519 80.289 91.6519 78.865C91.6519 66.7916 91.5901 54.7801 91.6519 42.7067C91.6519 40.9112 91.2809 40.1682 89.302 40.1682C87.3232 40.1682 86.6429 40.7255 86.6429 42.7686C86.7666 50.8795 86.5811 59.0522 86.7666 67.1631C86.8284 69.6397 85.9627 71.4971 84.4167 73.2927C80.1498 78.1839 73.1619 80.0414 66.9162 77.8743C60.9796 75.8312 56.589 69.7635 56.4653 63.1386C56.3416 56.328 56.3416 49.5174 56.4653 42.7686C56.4653 40.7874 55.9706 40.0444 53.868 40.1063C52.0129 40.1682 51.3326 40.6016 51.3945 42.5829C51.5181 49.765 51.3326 57.0091 51.5181 64.1912C51.8273 73.788 59.7428 82.2703 69.2042 83.6324C75.6973 84.5611 81.2011 82.5799 86.7048 78.3078Z" fill="#FDFEFD"/>
<path d="M44.8395 28.8997C57.7021 28.8997 70.5647 29.0236 83.3655 28.8997C90.1059 28.8378 95.3004 31.5002 99.1963 36.8248C104.082 43.4497 108.967 50.0746 113.79 56.6376C114.533 58.2474 115.522 59.6095 116.882 60.724C121.953 68.3395 127.086 75.8931 133.084 82.8275C137.228 87.595 142.793 89.5143 149.101 89.5143C149.472 88.0284 147.802 87.4092 147.926 85.5518C152.502 87.8426 156.893 90.0097 161.778 92.4243C156.831 94.9009 152.378 97.1299 147.122 99.7922C148.111 98.0586 148.73 96.8822 149.472 95.582C146.751 95.1486 144.277 94.9628 141.927 94.4056C135.125 92.7958 129.869 88.7714 125.787 83.199C121.768 77.6886 117.81 72.1782 113.852 66.7297C112.615 65.1199 111.379 63.4482 110.08 61.8384C104.762 54.4086 99.4437 46.9169 94.0018 39.5491C91.4664 36.0818 87.9416 34.534 83.6128 34.5959C70.6265 34.7197 57.7021 34.6578 44.7158 34.6578C44.8395 32.7384 44.8395 30.8191 44.8395 28.8997Z" fill="white"/>
<path d="M39.7068 34.6578C35.9965 34.6578 32.2861 34.7816 28.5757 34.5959C26.164 34.4721 25.4219 35.1531 25.4838 37.6297C25.6075 49.5793 25.6693 61.5289 25.5456 73.4784C25.4219 84.5612 16.8881 93.8484 5.94253 94.9629C4.70574 95.0867 3.2216 95.5201 3.53079 93.4769C3.71631 92.1148 2.47952 90.1954 5.2623 89.7001C15.0948 88.1522 20.2893 81.8988 20.3511 71.8067C20.3511 60.6001 20.2893 49.3316 20.4748 38.1251C20.5366 35.4008 19.7946 34.5959 16.9499 34.5959C15.5276 34.5959 13.6106 34.3483 12.1883 34.4721C12.8067 35.5865 13.858 37.0725 14.4764 38.1251C14.5382 38.2489 14.7237 38.6204 14.7237 38.6204C14.7237 38.6204 14.6619 38.6204 14.5382 38.5584C10.1476 36.3914 5.44781 34.2863 0.5625 31.8717C5.32413 29.1474 9.90025 26.8565 14.9711 24.6276C14.0435 26.1755 13.3633 27.2899 12.4357 28.9616C14.1053 28.9616 15.4658 29.0236 16.6407 29.0236C20.0419 28.8997 20.6603 28.0329 20.4129 25.1229C20.1038 21.4081 20.2893 17.6932 21.8971 14.2259C25.5456 6.30083 31.544 1.59531 40.3252 0.666584C41.6239 0.542755 42.3659 2.33827 42.3659 2.33827C42.3659 2.33827 43.5409 5.37211 40.82 5.86743C30.4928 7.60104 25.793 13.3591 25.6075 23.8846C25.5456 29.0855 25.5456 29.0855 30.7401 29.0855C33.7084 29.0855 36.7386 29.0855 39.7068 29.0855C40.0779 30.8191 39.9542 32.7385 39.7068 34.6578Z" fill="white"/>
<path d="M86.7048 78.3078C81.1393 82.5799 75.6356 84.4992 69.2043 83.5705C59.7428 82.2084 51.8274 73.7261 51.5182 64.1293C51.3327 56.9472 51.5182 49.7031 51.3945 42.521C51.3945 40.6016 52.0129 40.1063 53.8681 40.0444C55.9706 39.9825 56.4654 40.7255 56.4654 42.7067C56.3417 49.5174 56.3417 56.328 56.4654 63.0767C56.589 69.7016 60.9796 75.7074 66.9162 77.8125C73.162 79.9795 80.1499 78.1839 84.4168 73.2307C85.9628 71.4971 86.8285 69.5778 86.7667 67.1012C86.643 58.9903 86.7667 50.8176 86.643 42.7067C86.643 40.6636 87.3232 40.1063 89.3021 40.1063C91.2809 40.1063 91.7138 40.8493 91.652 42.6448C91.5901 54.7182 91.652 66.7297 91.652 78.8031C91.652 80.289 92.3941 82.0846 89.5494 82.2084C86.7667 82.4561 86.5812 80.9701 86.7048 78.3078Z" fill="#CECECE"/>
<path d="M39.707 34.6578C39.9544 32.7385 40.0162 30.8191 39.707 28.9617C39.7689 24.6276 39.8926 20.3555 39.8307 16.0215C39.8307 14.2878 40.3873 13.6687 42.1188 13.7306C43.7266 13.7925 44.8397 13.8544 44.8397 16.0215C44.716 20.3555 44.8397 24.6276 44.8397 28.9617C44.8397 30.881 44.8397 32.8004 44.8397 34.7197C44.8397 49.5174 44.8397 64.315 44.8397 79.1746C44.8397 80.8463 45.1489 82.3322 42.4898 82.3941C39.7689 82.4561 39.8307 81.094 39.8307 79.1746C39.8307 64.2531 39.7689 49.4555 39.707 34.6578Z" fill="#CECECE"/>
<path d="M110.203 61.8384C111.44 63.4482 112.677 65.1199 113.976 66.7297C112.491 66.5439 112.059 67.7203 111.44 68.5871C108.781 72.2401 106.06 75.8312 103.525 79.5461C102.164 81.5273 100.68 82.6418 98.2066 82.2084C97.5263 82.0846 96.6606 82.5799 96.2277 81.775C95.7948 80.9701 96.5987 80.4748 97.0316 79.9175C100.247 75.4597 103.525 70.9399 106.802 66.482C107.915 64.9342 109.028 63.3863 110.203 61.8384Z" fill="#CECECE"/>
<path d="M116.945 60.7859C115.584 59.6714 114.595 58.2474 113.853 56.6995C117.316 51.9321 120.902 47.3504 124.118 42.3972C125.788 39.8587 127.952 40.0444 130.302 40.2302C132.157 40.4159 131.106 41.4685 130.611 42.1495C126.035 48.341 121.459 54.5325 116.945 60.7859Z" fill="#CECECE"/>
</svg>
