<svg width="107" height="65" viewBox="0 0 107 65" fill="none" xmlns="http://www.w3.org/2000/svg">
<path fill-rule="evenodd" clip-rule="evenodd" d="M59.2899 25.7699V46.0177C58.7571 47.0833 58.0789 48.0521 57.1586 48.924C55.0272 51.0554 52.4115 52.1211 49.4082 52.1211C46.3565 52.1211 43.7892 51.0554 41.6579 48.924C39.5266 46.7927 38.4609 44.177 38.4609 41.1737V25.7699H35.167V41.1253C35.167 45.0973 36.5717 48.4397 39.3328 51.2492C42.0939 54.0102 45.4846 55.415 49.4567 55.415C53.2834 55.415 56.5773 54.1071 59.3384 51.4429V54.3008H62.6323V25.7699H59.2899ZM90.0975 25.7699H86.0286L77.7454 37.2501L69.4138 25.7699H65.3449L75.711 40.0596L65.3449 54.3493H69.4138L77.7454 42.8691L86.0286 54.3493H90.0975L79.7315 40.0596L90.0975 25.7699Z" fill="#CECECE"/>
<path fill-rule="evenodd" clip-rule="evenodd" d="M101.917 61.2277C93.4401 60.3074 89.9524 53.6711 89.9524 53.6711L70.3344 26.6418C70.1406 26.3996 69.9953 26.1574 69.85 25.9152C65.6842 19.0852 59.1448 19.5212 57.4494 19.5696C57.1103 19.5696 56.8197 19.6181 56.4806 19.6181C52.6539 19.6181 31.0498 19.6181 17.1961 19.5212V15.0647C17.1961 11.8677 18.3102 9.1551 20.5868 6.87844C22.8151 4.65021 25.5761 3.48766 28.7731 3.48766V0C24.6073 0 21.0712 1.45319 18.1164 4.40801C15.21 7.31439 13.7084 10.8989 13.7084 15.0647V19.4727C11.3349 19.4727 9.30041 19.4243 7.89566 19.3759L8.52538 18.4555C8.81602 18.0196 9.05821 17.632 9.34885 17.1961C9.59105 16.857 10.027 16.2273 10.1723 15.9367L0 21.0228L10.1723 26.109C10.027 25.9152 9.88169 25.673 9.73637 25.4793L8.1863 23.1542C9.59105 23.1542 11.4802 23.1542 13.7084 23.2026V49.7475C13.7084 52.9445 12.5943 55.6572 10.3176 57.9338C8.08942 60.162 5.32836 61.3246 2.13134 61.3246V64.8123C6.29715 64.8123 9.83325 63.3591 12.7881 60.4042C15.6944 57.4979 17.1961 53.9133 17.1961 49.7475V23.2026C32.7936 23.2995 58.3213 23.4448 58.0307 23.3479C62.9715 22.8635 65.4419 26.2543 66.1685 27.4653C66.3623 27.8044 66.6045 28.1434 66.7983 28.4341L70.7703 33.714L88.4992 58.176C95.7167 66.7498 106.906 64.8123 106.906 64.8123V61.2277H101.917ZM5.32836 19.279C5.3768 19.2305 5.3768 19.2305 5.32836 19.279C5.3768 19.279 5.32836 19.279 5.32836 19.279Z" fill="white"/>
<path fill-rule="evenodd" clip-rule="evenodd" d="M30.4199 18.068V54.3008V54.7852H27.126V8.08943H30.4199V18.068Z" fill="#CECECE"/>
</svg>
