<svg width="20" height="20" viewBox="0 0 20 20" fill="none" xmlns="http://www.w3.org/2000/svg">
<path d="M13.4927 16.4286H3.334C2.22289 16.4286 1.27051 15.4762 1.27051 14.3651V8.57143C1.27051 7.46032 2.22289 6.50794 3.334 6.50794H13.4927C14.6038 6.50794 15.5562 7.46032 15.5562 8.57143V14.3651C15.5562 15.4762 14.6038 16.4286 13.4927 16.4286ZM3.334 8.09524C3.0959 8.09524 2.85781 8.33334 2.85781 8.57143V14.3651C2.85781 14.6032 3.0959 14.8413 3.334 14.8413H13.4927C13.7308 14.8413 13.9689 14.6032 13.9689 14.3651V8.57143C13.9689 8.33334 13.7308 8.09524 13.4927 8.09524H3.334Z" fill="#3CAF00"/>
<path d="M17.9368 13.254C17.4606 13.254 17.1432 12.9365 17.1432 12.4603V5.79365C17.1432 5.47619 16.9844 5.2381 16.7463 5.2381H4.52412C4.04793 5.2381 3.73047 4.92064 3.73047 4.44445C3.73047 3.96826 4.04793 3.6508 4.52412 3.6508H16.7463C17.8575 3.6508 18.7305 4.60318 18.7305 5.79365V12.4603C18.7305 12.8571 18.413 13.254 17.9368 13.254Z" fill="#3CAF00"/>
<path d="M8.41273 13.9683C6.98416 13.9683 5.87305 12.8571 5.87305 11.4286C5.87305 10 6.98416 8.88889 8.41273 8.88889C9.8413 8.88889 10.9524 10 10.9524 11.4286C10.9524 12.8571 9.8413 13.9683 8.41273 13.9683ZM8.41273 10.5556C7.85717 10.5556 7.46035 10.9524 7.46035 11.5079C7.46035 12.0635 7.85717 12.381 8.41273 12.381C8.96828 12.381 9.36511 11.9841 9.36511 11.4286C9.36511 10.873 8.96828 10.5556 8.41273 10.5556Z" fill="#3CAF00"/>
<path d="M4.36513 11.9841C4.67195 11.9841 4.92068 11.7354 4.92068 11.4286C4.92068 11.1217 4.67195 10.873 4.36513 10.873C4.0583 10.873 3.80957 11.1217 3.80957 11.4286C3.80957 11.7354 4.0583 11.9841 4.36513 11.9841Z" fill="#3CAF00"/>
<path d="M12.4608 11.9841C12.7677 11.9841 13.0164 11.7354 13.0164 11.4286C13.0164 11.1217 12.7677 10.873 12.4608 10.873C12.154 10.873 11.9053 11.1217 11.9053 11.4286C11.9053 11.7354 12.154 11.9841 12.4608 11.9841Z" fill="#3CAF00"/>
</svg>
