<svg width="224" height="181" viewBox="0 0 224 181" fill="none" xmlns="http://www.w3.org/2000/svg">
<path d="M208.543 16.4758C211.138 56.8654 162.383 100.451 127.238 111.829C93.3715 122.811 25.6493 118.72 22.1874 71.125C20.8871 53.2463 31.2188 33.7423 46.5294 24.4237C71.1478 9.45441 90.4459 29.4298 114.712 32.6425C133.994 35.1943 148.925 26.5963 163.391 14.8559C175.44 5.08768 206.592 -13.8258 208.543 16.4758Z" fill="#3CAF00"/>
<path opacity="0.8" d="M208.543 16.4758C211.138 56.8654 162.383 100.451 127.238 111.829C93.3715 122.811 25.6493 118.72 22.1874 71.125C20.8871 53.2463 31.2188 33.7423 46.5294 24.4237C71.1478 9.45441 90.4459 29.4298 114.712 32.6425C133.994 35.1943 148.925 26.5963 163.391 14.8559C175.44 5.08768 206.592 -13.8258 208.543 16.4758Z" fill="white"/>
<path d="M118.955 180.326C176.97 180.326 224.001 177.58 224.001 174.193C224.001 170.806 176.97 168.06 118.955 168.06C60.9405 168.06 13.9102 170.806 13.9102 174.193C13.9102 177.58 60.9405 180.326 118.955 180.326Z" fill="#F5F5F5"/>
<path d="M63.1085 92.9724C74.5675 81.5134 74.5675 62.9346 63.1085 51.4756C51.6495 40.0166 33.0707 40.0166 21.6117 51.4756C10.1527 62.9346 10.1527 81.5134 21.6117 92.9724C33.0707 104.431 51.6495 104.431 63.1085 92.9724Z" fill="#3CAF00"/>
<path opacity="0.4" d="M63.1085 92.9724C74.5675 81.5134 74.5675 62.9346 63.1085 51.4756C51.6495 40.0166 33.0707 40.0166 21.6117 51.4756C10.1527 62.9346 10.1527 81.5134 21.6117 92.9724C33.0707 104.431 51.6495 104.431 63.1085 92.9724Z" fill="black"/>
<path opacity="0.2" d="M66.6513 76.3673C68.9394 62.9527 59.9197 50.2231 46.5051 47.9349C33.0906 45.6467 20.361 54.6665 18.0728 68.081C15.7846 81.4956 24.8043 94.2252 38.2189 96.5134C51.6335 98.8016 64.3631 89.7818 66.6513 76.3673Z" fill="black"/>
<path d="M67.83 74.5839C68.7445 61.5201 58.8955 50.1885 45.8318 49.2741C32.768 48.3596 21.4365 58.2085 20.522 71.2723C19.6075 84.336 29.4565 95.6676 42.5202 96.5821C55.584 97.4966 66.9156 87.6476 67.83 74.5839Z" fill="#3CAF00"/>
<path opacity="0.4" d="M67.83 74.5839C68.7445 61.5201 58.8955 50.1885 45.8318 49.2741C32.768 48.3596 21.4365 58.2085 20.522 71.2723C19.6075 84.336 29.4565 95.6676 42.5202 96.5821C55.584 97.4966 66.9156 87.6476 67.83 74.5839Z" fill="black"/>
<path d="M52.1034 69.9656L53.6474 76.6565C53.713 76.912 53.7247 77.1783 53.6818 77.4385C53.6389 77.6987 53.5423 77.9472 53.3982 78.1681C53.2582 78.3939 53.0744 78.5893 52.8575 78.7428C52.6407 78.8964 52.3953 79.0049 52.1359 79.062L46.2522 80.4219L47.3357 85.1299C47.3995 85.3844 47.4093 85.6494 47.3645 85.9078C47.3197 86.1663 47.2213 86.4125 47.0757 86.6307C46.9357 86.8527 46.7513 87.0434 46.5341 87.1908C46.3168 87.3381 46.0714 87.4388 45.8133 87.4867C45.5548 87.5514 45.2859 87.5637 45.0226 87.5228C44.7592 87.4818 44.5068 87.3885 44.2801 87.2483C44.0543 87.1154 43.8587 86.937 43.7057 86.7243C43.5527 86.5116 43.4457 86.2694 43.3916 86.013L42.308 81.2508L36.4731 82.5998C36.2216 82.6605 35.9605 82.6698 35.7054 82.6269C35.4503 82.5841 35.2065 82.4901 34.9886 82.3506C34.7622 82.2178 34.5659 82.0394 34.412 81.8268C34.2581 81.6142 34.1501 81.3719 34.0947 81.1154C34.0331 80.8622 34.0234 80.5992 34.0662 80.3422C34.1091 80.0852 34.2035 79.8395 34.3439 79.6201C34.4778 79.3957 34.6567 79.2014 34.8693 79.0495C35.0818 78.8975 35.3235 78.7911 35.5792 78.737L49.232 75.5892L48.5927 72.8099L34.9778 75.9468C34.7257 76.0111 34.4633 76.0236 34.2063 75.9836C33.9492 75.9435 33.703 75.8518 33.4825 75.7138C33.2563 75.5781 33.061 75.3967 32.9089 75.1812C32.7569 74.9657 32.6515 74.7209 32.5994 74.4623L31.0607 67.7985C30.9423 67.2862 31.0322 66.7479 31.3105 66.3019C31.5889 65.8559 32.033 65.5387 32.5452 65.4201L38.3531 64.0819L37.2695 59.3684C37.2067 59.1192 37.1944 58.8599 37.2335 58.6058C37.2726 58.3518 37.3622 58.1082 37.4971 57.8894C37.6399 57.6523 37.8318 57.4485 38.0598 57.2915C38.2877 57.1346 38.5466 57.0281 38.819 56.9792C39.0695 56.9183 39.3299 56.9089 39.5841 56.9518C39.8384 56.9946 40.0813 57.0887 40.298 57.2284C40.5205 57.3652 40.713 57.5457 40.8638 57.7589C41.0147 57.9721 41.1208 58.2137 41.1757 58.469L42.2593 63.1771L48.2188 61.8118C48.4766 61.7494 48.7444 61.7398 49.0061 61.7835C49.2677 61.8273 49.5178 61.9235 49.7412 62.0665C49.9673 62.1964 50.1639 62.3718 50.3187 62.5817C50.4735 62.7915 50.5831 63.0311 50.6406 63.2855C50.7547 63.8094 50.6594 64.3573 50.3749 64.8118C50.0904 65.2664 49.6393 65.5917 49.1182 65.718L35.4654 68.8658L36.0613 71.6288L49.6654 68.4919C49.9232 68.4295 50.191 68.4199 50.4526 68.4637C50.7142 68.5074 50.9643 68.6037 51.1878 68.7466C51.4175 68.874 51.6177 69.0484 51.7755 69.2585C51.9333 69.4685 52.045 69.7095 52.1034 69.9656Z" fill="#3CAF00"/>
<g opacity="0.7">
<path d="M52.1044 69.9656L53.6484 76.6565C53.714 76.912 53.7257 77.1783 53.6828 77.4385C53.6399 77.6987 53.5433 77.9472 53.3992 78.1681C53.2592 78.3939 53.0753 78.5893 52.8585 78.7428C52.6417 78.8964 52.3963 79.0049 52.1369 79.062L46.2532 80.4219L47.3367 85.1299C47.4005 85.3844 47.4103 85.6494 47.3655 85.9078C47.3207 86.1663 47.2223 86.4125 47.0767 86.6307C46.9367 86.8527 46.7523 87.0434 46.5351 87.1908C46.3178 87.3381 46.0724 87.4388 45.8143 87.4867C45.5558 87.5514 45.2869 87.5637 45.0236 87.5228C44.7602 87.4818 44.5077 87.3885 44.2811 87.2483C44.0553 87.1154 43.8597 86.937 43.7067 86.7243C43.5537 86.5116 43.4467 86.2694 43.3926 86.013L42.309 81.2508L36.4741 82.5998C36.2226 82.6605 35.9615 82.6698 35.7064 82.6269C35.4513 82.5841 35.2074 82.4901 34.9896 82.3506C34.7632 82.2178 34.5669 82.0394 34.413 81.8268C34.2591 81.6142 34.1511 81.3719 34.0957 81.1154C34.0341 80.8622 34.0244 80.5992 34.0672 80.3422C34.11 80.0852 34.2045 79.8395 34.3449 79.6201C34.4788 79.3957 34.6577 79.2014 34.8703 79.0495C35.0828 78.8975 35.3245 78.7911 35.5801 78.737L49.2329 75.5892L48.5936 72.8099L34.9788 75.9468C34.7267 76.0111 34.4642 76.0236 34.2072 75.9836C33.9502 75.9435 33.704 75.8518 33.4835 75.7138C33.2573 75.5781 33.062 75.3967 32.9099 75.1812C32.7579 74.9657 32.6524 74.7209 32.6004 74.4623L31.0617 67.7985C30.9433 67.2862 31.0331 66.7479 31.3115 66.3019C31.5899 65.8559 32.034 65.5387 32.5462 65.4201L38.354 64.0819L37.2705 59.3684C37.2077 59.1192 37.1954 58.8599 37.2345 58.6058C37.2736 58.3518 37.3632 58.1082 37.498 57.8894C37.6409 57.6523 37.8328 57.4485 38.0607 57.2915C38.2887 57.1346 38.5475 57.0281 38.82 56.9792C39.0705 56.9183 39.3308 56.9089 39.5851 56.9518C39.8394 56.9946 40.0823 57.0887 40.299 57.2284C40.5215 57.3652 40.714 57.5457 40.8648 57.7589C41.0157 57.9721 41.1218 58.2137 41.1767 58.469L42.2603 63.1771L48.2198 61.8118C48.4776 61.7494 48.7454 61.7398 49.007 61.7835C49.2687 61.8273 49.5187 61.9235 49.7422 62.0665C49.9683 62.1964 50.1649 62.3718 50.3197 62.5817C50.4745 62.7915 50.5841 63.0311 50.6416 63.2855C50.7557 63.8094 50.6603 64.3573 50.3758 64.8118C50.0914 65.2664 49.6403 65.5917 49.1192 65.718L35.4664 68.8658L36.0623 71.6288L49.6664 68.4919C49.9242 68.4295 50.1919 68.4199 50.4536 68.4637C50.7152 68.5074 50.9653 68.6037 51.1888 68.7466C51.4185 68.874 51.6187 69.0484 51.7765 69.2585C51.9343 69.4685 52.046 69.7095 52.1044 69.9656Z" fill="white"/>
</g>
<path d="M104.975 48.8892C112.275 40.2504 111.19 27.3292 102.552 20.0288C93.9127 12.7285 80.9915 13.8135 73.6911 22.4523C66.3908 31.0911 67.4758 44.0124 76.1146 51.3127C84.7534 58.6131 97.6746 57.528 104.975 48.8892Z" fill="#3CAF00"/>
<path opacity="0.4" d="M104.975 48.8892C112.275 40.2504 111.19 27.3292 102.552 20.0288C93.9127 12.7285 80.9915 13.8135 73.6911 22.4523C66.3908 31.0911 67.4758 44.0124 76.1146 51.3127C84.7534 58.6131 97.6746 57.528 104.975 48.8892Z" fill="black"/>
<path opacity="0.2" d="M102.589 46.6119C108.64 39.2921 107.611 28.4529 100.292 22.4018C92.9719 16.3506 82.1327 17.3791 76.0815 24.6988C70.0304 32.0186 71.0588 42.8578 78.3786 48.909C85.6983 54.9601 96.5376 53.9317 102.589 46.6119Z" fill="black"/>
<path d="M103.108 46.7916C108.644 39.5478 107.26 29.1876 100.016 23.6514C92.7723 18.1152 82.4121 19.4993 76.8758 26.7431C71.3396 33.9868 72.7238 44.347 79.9675 49.8832C87.2112 55.4195 97.5714 54.0353 103.108 46.7916Z" fill="#3CAF00"/>
<path opacity="0.4" d="M103.108 46.7916C108.644 39.5478 107.26 29.1876 100.016 23.6514C92.7723 18.1152 82.4121 19.4993 76.8758 26.7431C71.3396 33.9868 72.7238 44.347 79.9675 49.8832C87.2112 55.4195 97.5714 54.0353 103.108 46.7916Z" fill="black"/>
<path d="M96.1016 37.3506L94.9368 41.999C94.8945 42.1758 94.8158 42.3418 94.7057 42.4864C94.5957 42.631 94.4566 42.751 94.2975 42.8388C94.1367 42.9365 93.9579 43.0008 93.7717 43.0278C93.5855 43.0548 93.3958 43.044 93.2139 42.9959L89.156 41.9719L88.3325 45.2226C88.2906 45.4002 88.2121 45.5671 88.102 45.7126C87.992 45.8582 87.8527 45.9791 87.6932 46.0678C87.5395 46.1632 87.3681 46.2263 87.1892 46.2533C87.0104 46.2803 86.828 46.2706 86.653 46.2249C86.4728 46.1825 86.3028 46.1046 86.153 45.9958C86.0032 45.887 85.8767 45.7493 85.7807 45.591C85.6829 45.4363 85.618 45.2632 85.5901 45.0824C85.5621 44.9016 85.5717 44.7169 85.6182 44.5399L86.4471 41.2351L82.3838 40.2437C82.2077 40.2015 82.042 40.1241 81.8968 40.0161C81.7515 39.908 81.6296 39.7717 81.5386 39.6152C81.4407 39.4616 81.3756 39.2894 81.3477 39.1094C81.3197 38.9294 81.3294 38.7456 81.3761 38.5696C81.4166 38.3914 81.4932 38.2235 81.6014 38.0763C81.7095 37.929 81.8467 37.8055 82.0045 37.7135C82.1603 37.6185 82.3338 37.556 82.5145 37.5299C82.6952 37.5038 82.8792 37.5147 83.0556 37.5619L92.5367 39.9403L93.0243 38.0115L83.5703 35.6385C83.3932 35.5989 83.2263 35.5231 83.0799 35.4159C82.9335 35.3087 82.8109 35.1724 82.7197 35.0155C82.6215 34.861 82.5573 34.6874 82.5311 34.5062C82.505 34.3251 82.5175 34.1404 82.568 33.9644L83.7274 29.3322C83.771 29.1557 83.8492 28.9895 83.9575 28.8434C84.0658 28.6972 84.2019 28.574 84.3581 28.4808C84.5143 28.3876 84.6874 28.3263 84.8674 28.3004C85.0474 28.2745 85.2308 28.2845 85.4069 28.33L89.4269 29.3377L90.2504 26.087C90.2902 25.9035 90.3676 25.7303 90.4777 25.5782C90.5878 25.4261 90.7281 25.2984 90.89 25.2032C91.0518 25.108 91.2316 25.0474 91.4181 25.0252C91.6045 25.0029 91.7935 25.0195 91.9732 25.0739C92.1479 25.1143 92.3122 25.1906 92.4558 25.2978C92.5994 25.4051 92.7192 25.541 92.8076 25.6969C92.9034 25.8514 92.9668 26.0238 92.9938 26.2036C93.0208 26.3833 93.0109 26.5667 92.9647 26.7425L92.1412 29.9932L96.2587 31.028C96.4393 31.0712 96.6093 31.1505 96.7583 31.2614C96.9073 31.3722 97.0323 31.5121 97.1256 31.6727C97.2243 31.8249 97.2906 31.9958 97.3205 32.1748C97.3503 32.3538 97.3429 32.5369 97.2989 32.7129C97.2537 32.8934 97.1729 33.0631 97.0613 33.2119C96.9496 33.3608 96.8094 33.4858 96.6488 33.5798C96.4888 33.6793 96.3101 33.7451 96.1238 33.7731C95.9375 33.801 95.7474 33.7906 95.5652 33.7423L86.0787 31.3639L85.6019 33.2818L95.0505 35.6494C95.2312 35.6925 95.4011 35.7719 95.5502 35.8827C95.6992 35.9936 95.8241 36.1335 95.9174 36.2941C96.0218 36.4468 96.0922 36.6201 96.124 36.8024C96.1558 36.9846 96.1481 37.1715 96.1016 37.3506Z" fill="#3CAF00"/>
<g opacity="0.7">
<path d="M96.1026 37.3506L94.9377 41.999C94.8955 42.1758 94.8168 42.3418 94.7067 42.4864C94.5966 42.631 94.4576 42.751 94.2984 42.8388C94.1377 42.9365 93.9589 43.0008 93.7727 43.0278C93.5865 43.0548 93.3968 43.044 93.2149 42.9959L89.157 41.9719L88.3335 45.2226C88.2916 45.4002 88.2131 45.5671 88.103 45.7126C87.9929 45.8582 87.8537 45.9791 87.6942 46.0678C87.5405 46.1632 87.3691 46.2263 87.1902 46.2533C87.0114 46.2803 86.8289 46.2706 86.654 46.2249C86.4737 46.1825 86.3038 46.1046 86.154 45.9958C86.0042 45.887 85.8776 45.7493 85.7817 45.591C85.6839 45.4363 85.619 45.2632 85.591 45.0824C85.5631 44.9016 85.5727 44.7169 85.6192 44.5399L86.4481 41.2351L82.3848 40.2437C82.2087 40.2015 82.043 40.1241 81.8977 40.0161C81.7525 39.908 81.6306 39.7717 81.5396 39.6152C81.4416 39.4616 81.3766 39.2894 81.3486 39.1094C81.3207 38.9294 81.3303 38.7456 81.377 38.5696C81.4175 38.3914 81.4942 38.2235 81.6023 38.0763C81.7104 37.929 81.8477 37.8055 82.0055 37.7135C82.1613 37.6185 82.3348 37.556 82.5155 37.5299C82.6961 37.5038 82.8802 37.5147 83.0566 37.5619L92.5377 39.9403L93.0253 38.0115L83.5712 35.6385C83.3942 35.5989 83.2272 35.5231 83.0809 35.4159C82.9345 35.3087 82.8118 35.1724 82.7206 35.0155C82.6225 34.861 82.5582 34.6874 82.5321 34.5062C82.506 34.3251 82.5185 34.1404 82.569 33.9644L83.7284 29.3322C83.772 29.1557 83.8502 28.9895 83.9585 28.8434C84.0667 28.6972 84.2029 28.574 84.3591 28.4808C84.5152 28.3876 84.6883 28.3263 84.8684 28.3004C85.0484 28.2745 85.2318 28.2845 85.4079 28.33L89.4279 29.3377L90.2514 26.087C90.2912 25.9035 90.3686 25.7303 90.4787 25.5782C90.5887 25.4261 90.7291 25.2984 90.891 25.2032C91.0528 25.108 91.2326 25.0474 91.4191 25.0252C91.6055 25.0029 91.7945 25.0195 91.9742 25.0739C92.1488 25.1143 92.3132 25.1906 92.4568 25.2978C92.6004 25.4051 92.7202 25.541 92.8086 25.6969C92.9044 25.8514 92.9678 26.0238 92.9948 26.2036C93.0218 26.3833 93.0119 26.5667 92.9657 26.7425L92.1422 29.9932L96.2597 31.028C96.4403 31.0712 96.6103 31.1505 96.7593 31.2614C96.9083 31.3722 97.0332 31.5121 97.1265 31.6727C97.2253 31.8249 97.2916 31.9958 97.3214 32.1748C97.3513 32.3538 97.3439 32.5369 97.2999 32.7129C97.2547 32.8934 97.1739 33.0631 97.0622 33.2119C96.9506 33.3608 96.8104 33.4858 96.6498 33.5798C96.4898 33.6793 96.3111 33.7451 96.1248 33.7731C95.9384 33.801 95.7484 33.7906 95.5662 33.7423L86.0797 31.3639L85.6029 33.2818L95.0515 35.6494C95.2321 35.6925 95.4021 35.7719 95.5511 35.8827C95.7001 35.9936 95.8251 36.1335 95.9184 36.2941C96.0227 36.4468 96.0932 36.6201 96.125 36.8024C96.1567 36.9846 96.1491 37.1715 96.1026 37.3506Z" fill="white"/>
</g>
<path d="M39.4539 159.418H38.9121V165.535H39.4539V159.418Z" fill="#3CAF00"/>
<path opacity="0.1" d="M39.4539 159.418H38.9121V165.535H39.4539V159.418Z" fill="black"/>
<path d="M198.997 110.956H198.455V119.338H198.997V110.956Z" fill="#3CAF00"/>
<path d="M198.997 123.737H198.455V128.283H198.997V123.737Z" fill="#3CAF00"/>
<path opacity="0.1" d="M198.997 110.956H198.455V119.338H198.997V110.956Z" fill="black"/>
<path opacity="0.1" d="M198.997 123.737H198.455V128.283H198.997V123.737Z" fill="black"/>
<path d="M188.952 74.614H48.9623C44.4592 74.614 40.8086 78.2646 40.8086 82.7678V164.712C40.8086 169.215 44.4592 172.865 48.9623 172.865H188.952C193.455 172.865 197.106 169.215 197.106 164.712V82.7678C197.106 78.2646 193.455 74.614 188.952 74.614Z" fill="#3CAF00"/>
<path opacity="0.2" d="M188.952 74.614H48.9623C44.4592 74.614 40.8086 78.2646 40.8086 82.7678V164.712C40.8086 169.215 44.4592 172.865 48.9623 172.865H188.952C193.455 172.865 197.106 169.215 197.106 164.712V82.7678C197.106 78.2646 193.455 74.614 188.952 74.614Z" fill="black"/>
<path d="M171.805 108.827C174.487 108.827 177.06 107.762 178.957 105.865C180.854 103.968 181.92 101.395 181.92 98.7123C181.92 96.0296 180.854 93.4569 178.957 91.5599C177.06 89.663 174.487 88.5973 171.805 88.5973H158.748C156.065 88.5973 153.492 89.663 151.595 91.5599C149.698 93.4569 148.633 96.0296 148.633 98.7123C148.633 101.395 149.698 103.968 151.595 105.865C153.492 107.762 156.065 108.827 158.748 108.827H171.805Z" fill="#3CAF00"/>
<path d="M83.5987 108.822H59.5058C57.5669 108.822 55.9951 110.394 55.9951 112.333V128.082C55.9951 130.021 57.5669 131.593 59.5058 131.593H83.5987C85.5376 131.593 87.1094 130.021 87.1094 128.082V112.333C87.1094 110.394 85.5376 108.822 83.5987 108.822Z" fill="#3CAF00"/>
<path opacity="0.3" d="M83.5987 108.822H59.5058C57.5669 108.822 55.9951 110.394 55.9951 112.333V128.082C55.9951 130.021 57.5669 131.593 59.5058 131.593H83.5987C85.5376 131.593 87.1094 130.021 87.1094 128.082V112.333C87.1094 110.394 85.5376 108.822 83.5987 108.822Z" fill="white"/>
<path d="M100.269 86.1105H58.4819C57.1085 86.1105 55.9951 87.2227 55.9951 88.5946C55.9951 89.9665 57.1085 91.0786 58.4819 91.0786H100.269C101.643 91.0786 102.756 89.9665 102.756 88.5946C102.756 87.2227 101.643 86.1105 100.269 86.1105Z" fill="#3CAF00"/>
<path opacity="0.3" d="M100.269 86.1105H58.4819C57.1085 86.1105 55.9951 87.2227 55.9951 88.5946C55.9951 89.9665 57.1085 91.0786 58.4819 91.0786H100.269C101.643 91.0786 102.756 89.9665 102.756 88.5946C102.756 87.2227 101.643 86.1105 100.269 86.1105Z" fill="white"/>
<path d="M78.4356 142.894H59.6413C57.6276 142.894 55.9951 144.527 55.9951 146.54V149.948C55.9951 151.962 57.6276 153.594 59.6413 153.594H78.4356C80.4493 153.594 82.0817 151.962 82.0817 149.948V146.54C82.0817 144.527 80.4493 142.894 78.4356 142.894Z" fill="#3CAF00"/>
<path opacity="0.3" d="M78.4356 142.894H59.6413C57.6276 142.894 55.9951 144.527 55.9951 146.54V149.948C55.9951 151.962 57.6276 153.594 59.6413 153.594H78.4356C80.4493 153.594 82.0817 151.962 82.0817 149.948V146.54C82.0817 144.527 80.4493 142.894 78.4356 142.894Z" fill="white"/>
<path d="M111.712 142.894H92.9176C90.9039 142.894 89.2715 144.527 89.2715 146.54V149.948C89.2715 151.962 90.9039 153.594 92.9176 153.594H111.712C113.726 153.594 115.358 151.962 115.358 149.948V146.54C115.358 144.527 113.726 142.894 111.712 142.894Z" fill="#3CAF00"/>
<path opacity="0.3" d="M111.712 142.894H92.9176C90.9039 142.894 89.2715 144.527 89.2715 146.54V149.948C89.2715 151.962 90.9039 153.594 92.9176 153.594H111.712C113.726 153.594 115.358 151.962 115.358 149.948V146.54C115.358 144.527 113.726 142.894 111.712 142.894Z" fill="white"/>
<path d="M144.991 142.894H126.197C124.183 142.894 122.551 144.527 122.551 146.54V149.948C122.551 151.962 124.183 153.594 126.197 153.594H144.991C147.005 153.594 148.637 151.962 148.637 149.948V146.54C148.637 144.527 147.005 142.894 144.991 142.894Z" fill="#3CAF00"/>
<path opacity="0.3" d="M144.991 142.894H126.197C124.183 142.894 122.551 144.527 122.551 146.54V149.948C122.551 151.962 124.183 153.594 126.197 153.594H144.991C147.005 153.594 148.637 151.962 148.637 149.948V146.54C148.637 144.527 147.005 142.894 144.991 142.894Z" fill="white"/>
<path d="M178.268 142.894H159.473C157.46 142.894 155.827 144.527 155.827 146.54V149.948C155.827 151.962 157.46 153.594 159.473 153.594H178.268C180.281 153.594 181.914 151.962 181.914 149.948V146.54C181.914 144.527 180.281 142.894 178.268 142.894Z" fill="#3CAF00"/>
<path opacity="0.3" d="M178.268 142.894H159.473C157.46 142.894 155.827 144.527 155.827 146.54V149.948C155.827 151.962 157.46 153.594 159.473 153.594H178.268C180.281 153.594 181.914 151.962 181.914 149.948V146.54C181.914 144.527 180.281 142.894 178.268 142.894Z" fill="white"/>
<path d="M142.251 39.0626C140.967 42.6871 139.542 46.1924 138.03 49.6977C136.5 53.2622 134.745 56.7258 132.775 60.0673C132.509 60.4953 132.233 60.9233 131.946 61.3513L131.735 61.671L131.448 62.0664C131.252 62.3157 131.068 62.5324 130.906 62.7437C130.223 63.5047 129.5 64.2281 128.739 64.9108C127.292 66.249 125.818 67.4626 124.329 68.6599C121.338 71.0329 118.282 73.2542 115.118 75.3617L113.228 73.0158L121.192 65.1654C122.508 63.8597 123.814 62.5432 125.033 61.2267C125.634 60.5711 126.219 59.8993 126.702 59.2817C126.821 59.13 126.924 58.9783 127.016 58.8483L127.13 58.6641L127.287 58.3824C127.498 58.0085 127.72 57.6455 127.926 57.2609C129.584 54.1457 131.047 50.7596 132.455 47.3247C133.864 43.8898 135.218 40.4278 136.519 36.993L142.251 39.0626Z" fill="#E4897B"/>
<path d="M143.774 36.4512C145.004 40.0486 137.776 50.6295 137.776 50.6295L130.874 46.7883C132.05 43.4869 133.44 40.2655 135.035 37.1447C137.451 32.5721 142.425 32.5016 143.774 36.4512Z" fill="#3CAF00"/>
<path opacity="0.7" d="M143.774 36.4512C145.004 40.0486 137.776 50.6295 137.776 50.6295L130.874 46.7883C132.05 43.4869 133.44 40.2655 135.035 37.1447C137.451 32.5721 142.425 32.5016 143.774 36.4512Z" fill="white"/>
<path opacity="0.31" d="M143.876 36.9009C142.327 36.1586 140.544 36.7817 138.664 39.7506C136.784 42.7196 135.186 47.6768 135.013 49.0909L137.781 50.6241C137.781 50.6241 144.45 40.8504 143.876 36.9009Z" fill="#3CAF00"/>
<path d="M139.097 33.699C139.097 33.699 133.939 45.8294 137.656 68.4161H159.137C159.403 65.1167 157.886 49.0313 161.608 33.4931C159.243 33.0327 156.85 32.7287 154.446 32.5829C151.405 32.4094 148.357 32.4094 145.317 32.5829C143.218 32.796 141.139 33.1691 139.097 33.699Z" fill="#3CAF00"/>
<path opacity="0.7" d="M139.097 33.699C139.097 33.699 133.939 45.8294 137.656 68.4161H159.137C159.403 65.1167 157.886 49.0313 161.608 33.4931C159.243 33.0327 156.85 32.7287 154.446 32.5829C151.405 32.4094 148.357 32.4094 145.317 32.5829C143.218 32.796 141.139 33.1691 139.097 33.699Z" fill="white"/>
<path d="M166.746 164.647L163.565 167.496L157.503 161.19L160.689 158.34L166.746 164.647Z" fill="#E4897B"/>
<path d="M155.838 170.579H151.824L151.304 161.277H155.318L155.838 170.579Z" fill="#E4897B"/>
<path d="M157.507 161.19L160.627 164.441L163.813 161.591L160.692 158.34L157.507 161.19Z" fill="#CE6F64"/>
<path d="M155.318 161.282H151.304L151.575 166.077H155.589L155.318 161.282Z" fill="#CE6F64"/>
<path d="M137.656 68.4161C137.656 68.4161 133.425 97.7046 131.984 113.644C130.824 126.435 158.482 164.571 158.482 164.571L163.829 159.538C163.829 159.538 143.632 125.346 145.187 111.108C146.693 97.3199 151.797 68.3998 151.797 68.3998L137.656 68.4161Z" fill="#3CAF00"/>
<path opacity="0.7" d="M137.656 68.4161C137.656 68.4161 133.425 97.7046 131.984 113.644C130.824 126.435 158.482 164.571 158.482 164.571L163.829 159.538C163.829 159.538 143.632 125.346 145.187 111.108C146.693 97.3199 151.797 68.3998 151.797 68.3998L137.656 68.4161Z" fill="black"/>
<path opacity="0.2" d="M145.188 111.124C145.963 104.022 147.696 92.8936 149.186 83.7809C148.406 82.2531 146.217 79.1595 146.217 79.1595C144.256 85.9372 139.992 111.487 146.076 145.993C152.415 156.211 158.483 164.587 158.483 164.587L159.312 151.411C153.455 140.391 144.11 120.969 145.188 111.124Z" fill="black"/>
<path d="M145.296 68.4161C145.296 68.4161 144.916 99.1078 145.566 110.61C146.276 123.201 149.852 164.918 149.852 164.918H157.209C157.209 164.918 156.987 124.219 157.42 111.758C157.903 98.2139 159.149 68.4161 159.149 68.4161H145.296Z" fill="#3CAF00"/>
<path opacity="0.7" d="M145.296 68.4161C145.296 68.4161 144.916 99.1078 145.566 110.61C146.276 123.201 149.852 164.918 149.852 164.918H157.209C157.209 164.918 156.987 124.219 157.42 111.758C157.903 98.2139 159.149 68.4161 159.149 68.4161H145.296Z" fill="black"/>
<path d="M151.612 170.119H156.125C156.201 170.116 156.274 170.142 156.33 170.193C156.386 170.244 156.419 170.314 156.423 170.39L156.646 173.96C156.646 174.053 156.629 174.145 156.594 174.232C156.559 174.318 156.507 174.397 156.441 174.463C156.376 174.53 156.298 174.583 156.212 174.619C156.127 174.655 156.034 174.674 155.941 174.675C154.37 174.648 153.617 174.556 151.634 174.556C150.415 174.556 145.225 174.686 143.54 174.686C141.855 174.686 141.915 173.017 142.613 172.865C145.815 172.188 149.787 171.24 150.924 170.362C151.121 170.207 151.362 170.122 151.612 170.119Z" fill="#263238"/>
<path d="M162.687 166.359L166.555 163.753C166.618 163.703 166.697 163.675 166.777 163.675C166.858 163.675 166.936 163.703 166.999 163.753L169.958 166.738C170.015 166.804 170.058 166.881 170.082 166.965C170.107 167.049 170.112 167.137 170.099 167.223C170.086 167.31 170.053 167.392 170.005 167.464C169.956 167.537 169.892 167.598 169.817 167.643C167.346 169.544 165.564 170.98 164.155 172.562C162.53 174.409 161.652 174.675 157.86 174.675C156.104 174.675 155.113 173.196 155.828 172.968C162.145 170.969 160.455 170.097 161.993 167.166C162.154 166.843 162.392 166.566 162.687 166.359Z" fill="#263238"/>
<path d="M114.138 72.5119L109.95 72.6582L110.828 75.9414C110.828 75.9414 115.205 76.3315 115.596 75.0095L114.138 72.5119Z" fill="#E4897B"/>
<path d="M105.432 74.614L108.368 76.326L110.828 75.9414L109.95 72.6582L105.432 74.614Z" fill="#E4897B"/>
<path opacity="0.31" d="M156.809 37.3289C156.365 39.8861 156.955 45.9973 159.149 53.0729C159.321 47.0108 160.026 40.9756 161.257 35.0372V35.0047C159.848 34.8638 157.237 34.9288 156.809 37.3289Z" fill="#3CAF00"/>
<path d="M153.899 22.3C153.222 25.2364 152.458 30.6217 154.441 32.5937C154.441 32.5937 153.585 35.0263 148.124 35.0263C142.121 35.0263 145.312 32.5937 145.312 32.5937C148.617 31.8136 148.617 29.381 148.124 27.1001L153.899 22.3Z" fill="#E4897B"/>
<path d="M147.972 35.0155L146.347 36.7438L147.143 38.4124L148.438 38.472L149.543 36.8792L147.972 35.0155Z" fill="#3CAF00"/>
<path d="M151.548 24.2558L148.129 27.0839C148.252 27.618 148.328 28.1618 148.356 28.7092C149.613 28.5304 151.38 27.1543 151.558 25.8432C151.654 25.318 151.65 24.7796 151.548 24.2558Z" fill="#CE6F64"/>
<path d="M146.774 12.3421C144.721 13.041 143.079 18.4858 145.474 19.927C147.868 21.3681 150.675 11.0147 146.774 12.3421Z" fill="#263238"/>
<path d="M155.184 19.2227C153.959 23.0151 153.439 25.3068 150.969 26.8617C150.172 27.374 149.25 27.6585 148.303 27.6847C147.356 27.7108 146.42 27.4775 145.596 27.01C144.772 26.5424 144.091 25.8585 143.628 25.0322C143.164 24.2058 142.936 23.2685 142.967 22.3216C143.015 18.6755 145.009 13.0626 149.208 12.3583C150.113 12.1837 151.048 12.2498 151.919 12.5501C152.79 12.8504 153.568 13.3743 154.173 14.0695C154.778 14.7646 155.19 15.6065 155.367 16.5109C155.545 17.4153 155.481 18.3504 155.184 19.2227Z" fill="#E4897B"/>
<path d="M158.216 12.8839C156.992 15.842 159.842 13.3715 159.105 16.8822C158.628 19.1685 154.5 24.6459 152.907 24.1474C151.314 23.649 151.33 19.7644 153.362 17.0176C154.532 15.4411 152.002 13.6532 146.319 13.8428C140.636 14.0324 137.201 10.8359 144.753 8.49005C144.753 8.49005 141.968 10.1154 143.621 10.6572C145.961 11.5294 160.671 6.95682 158.216 12.8839Z" fill="#263238"/>
<path d="M157.134 14.2383C157.074 14.2383 158.407 13.9078 159.117 11.5294C159.117 11.5673 158.884 15.0726 157.134 14.2383Z" fill="#263238"/>
<path d="M146.499 9.01557C143.004 10.0991 144.451 11.3181 145.897 11.6215L149.213 10.3213C144.175 10.9876 146.499 9.01557 146.499 9.01557Z" fill="#263238"/>
<path d="M155.855 23.8549C155.128 24.561 154.159 24.9623 153.146 24.9764C151.807 24.9764 151.52 23.7086 152.241 22.6467C152.88 21.6932 154.343 20.5446 155.524 21.0593C156.705 21.574 156.743 22.9826 155.855 23.8549Z" fill="#E4897B"/>
<path d="M149.012 19.0114C148.931 19.3256 148.698 19.5532 148.47 19.499C148.243 19.4448 148.161 19.1576 148.243 18.8434C148.324 18.5292 148.557 18.3016 148.784 18.3612C149.012 18.4208 149.093 18.6971 149.012 19.0114Z" fill="#263238"/>
<path d="M145.437 18.2258C145.356 18.54 145.123 18.7676 144.895 18.7134C144.667 18.6592 144.586 18.3775 144.667 18.0633C144.749 17.749 144.976 17.5215 145.209 17.5757C145.442 17.6298 145.502 17.9116 145.437 18.2258Z" fill="#263238"/>
<path d="M146.531 18.6321C145.915 19.5093 145.187 20.3017 144.364 20.9889C144.545 21.1899 144.768 21.3489 145.017 21.4547C145.266 21.5604 145.535 21.6104 145.805 21.6011L146.531 18.6321Z" fill="#DE5753"/>
<path d="M147.127 22.7442C146.903 22.744 146.68 22.7185 146.461 22.6684C146.437 22.662 146.416 22.6466 146.403 22.6255C146.39 22.6043 146.386 22.579 146.391 22.5546C146.397 22.5306 146.412 22.5099 146.434 22.4968C146.455 22.4837 146.48 22.4792 146.504 22.4842C146.903 22.573 147.317 22.5704 147.715 22.4766C148.113 22.3828 148.484 22.2001 148.802 21.9424C148.82 21.9248 148.844 21.915 148.869 21.915C148.895 21.915 148.919 21.9248 148.937 21.9424C148.955 21.9606 148.964 21.9848 148.964 22.0101C148.964 22.0354 148.955 22.0597 148.937 22.0778C148.434 22.5109 147.791 22.7476 147.127 22.7442Z" fill="#263238"/>
<path d="M150.433 18.1066C150.396 18.1072 150.36 18.0967 150.329 18.0764C150.298 18.0561 150.274 18.027 150.26 17.9928C150.171 17.7755 150.031 17.5828 149.851 17.4309C149.672 17.2791 149.459 17.1727 149.23 17.1206C149.205 17.1173 149.181 17.109 149.159 17.0962C149.138 17.0835 149.119 17.0665 149.103 17.0464C149.088 17.0262 149.077 17.0032 149.071 16.9787C149.065 16.9542 149.064 16.9288 149.068 16.9039C149.076 16.854 149.103 16.8092 149.143 16.7788C149.184 16.7485 149.234 16.7351 149.284 16.7413C149.576 16.8008 149.849 16.9306 150.079 17.1194C150.31 17.3082 150.491 17.5504 150.606 17.8249C150.617 17.8475 150.623 17.8721 150.624 17.8972C150.625 17.9222 150.62 17.9472 150.611 17.9705C150.602 17.9938 150.588 18.015 150.571 18.0328C150.553 18.0507 150.532 18.0647 150.509 18.0741C150.486 18.0904 150.46 18.1015 150.433 18.1066Z" fill="#263238"/>
<path d="M144.228 16.6709C144.184 16.6705 144.142 16.6552 144.109 16.6275C144.07 16.5948 144.045 16.5482 144.04 16.4976C144.035 16.447 144.05 16.3964 144.082 16.3567C144.272 16.1192 144.515 15.9287 144.792 15.8C145.068 15.6713 145.37 15.6078 145.674 15.6144C145.699 15.6165 145.724 15.6234 145.746 15.6349C145.768 15.6464 145.788 15.6621 145.804 15.6813C145.82 15.7004 145.832 15.7225 145.84 15.7464C145.847 15.7703 145.85 15.7954 145.848 15.8203C145.846 15.8455 145.84 15.8702 145.829 15.8928C145.818 15.9154 145.802 15.9354 145.782 15.9517C145.763 15.9679 145.741 15.98 145.717 15.9873C145.692 15.9945 145.667 15.9967 145.642 15.9937C145.398 15.9911 145.157 16.0445 144.937 16.1497C144.718 16.2549 144.525 16.4091 144.374 16.6005C144.357 16.6226 144.335 16.6404 144.309 16.6527C144.284 16.6649 144.256 16.6711 144.228 16.6709Z" fill="#263238"/>
<path d="M162.649 36.2616C163.071 36.9171 163.423 37.4968 163.781 38.1253C164.139 38.7537 164.48 39.3605 164.816 39.989C165.477 41.2405 166.1 42.5191 166.669 43.8248C167.862 46.4978 168.758 49.2939 169.34 52.1627L169.394 52.4391L169.421 52.5745L169.459 52.802C169.505 53.1051 169.528 53.4111 169.529 53.7176C169.524 54.2309 169.47 54.7425 169.367 55.2455C169.183 56.075 168.918 56.8844 168.576 57.6618C167.968 59.024 167.242 60.3309 166.409 61.568C164.833 63.9203 163.041 66.1205 161.056 68.1398L158.699 66.249C160.01 63.9627 161.316 61.5897 162.41 59.2655C162.948 58.1539 163.408 57.0062 163.786 55.8306C163.941 55.3402 164.046 54.8357 164.101 54.3244C164.12 54.157 164.12 53.988 164.101 53.8206C164.101 53.7718 164.101 53.7285 164.068 53.7231C164.036 53.7177 164.068 53.7231 164.068 53.696L164.036 53.5876L163.971 53.3655C163.628 52.1705 163.221 50.9949 162.752 49.8439C162.275 48.6683 161.744 47.498 161.186 46.3332C160.628 45.1684 160.027 44.0198 159.409 42.8713C159.106 42.297 158.786 41.7281 158.466 41.1647L157.513 39.5393L162.649 36.2616Z" fill="#E4897B"/>
<path d="M150.193 170.812C149.922 170.839 149.652 170.764 149.434 170.601C149.373 170.533 149.33 170.451 149.309 170.361C149.288 170.272 149.29 170.18 149.315 170.092C149.327 170.032 149.354 169.977 149.392 169.931C149.431 169.884 149.481 169.848 149.537 169.826C150.03 169.631 151.163 170.411 151.293 170.498C151.309 170.508 151.321 170.523 151.328 170.54C151.335 170.558 151.336 170.577 151.331 170.595C151.328 170.614 151.32 170.631 151.307 170.644C151.294 170.658 151.278 170.667 151.26 170.671C150.91 170.755 150.553 170.803 150.193 170.812ZM149.721 169.983C149.684 169.977 149.645 169.977 149.608 169.983C149.58 169.993 149.556 170.011 149.538 170.033C149.519 170.056 149.508 170.084 149.505 170.113C149.485 170.17 149.481 170.231 149.492 170.29C149.504 170.349 149.53 170.404 149.57 170.449C149.754 170.633 150.279 170.655 151 170.514C150.617 170.248 150.181 170.069 149.721 169.989V169.983Z" fill="white"/>
<path d="M151.239 170.677H151.191C150.79 170.438 150.194 169.593 150.286 169.16C150.302 169.08 150.344 169.009 150.406 168.956C150.468 168.904 150.546 168.875 150.627 168.873C150.699 168.863 150.771 168.87 150.84 168.893C150.908 168.915 150.971 168.953 151.023 169.003C151.429 169.398 151.337 170.552 151.337 170.601C151.335 170.617 151.329 170.632 151.32 170.646C151.31 170.659 151.297 170.67 151.283 170.677H151.239ZM150.698 169.051H150.654C150.519 169.051 150.486 169.133 150.476 169.187C150.416 169.474 150.811 170.108 151.158 170.4C151.208 169.961 151.117 169.517 150.898 169.133C150.871 169.106 150.839 169.085 150.803 169.071C150.768 169.057 150.73 169.051 150.692 169.051H150.698Z" fill="white"/>
<path d="M160.086 168.537C159.985 168.54 159.886 168.521 159.793 168.482C159.722 168.454 159.658 168.408 159.608 168.35C159.558 168.291 159.523 168.222 159.506 168.147C159.492 168.101 159.49 168.052 159.501 168.006C159.511 167.959 159.534 167.916 159.566 167.881C159.929 167.442 161.83 167.572 162.047 167.589C162.067 167.589 162.087 167.596 162.102 167.609C162.118 167.622 162.129 167.639 162.134 167.659C162.138 167.678 162.136 167.699 162.128 167.717C162.12 167.736 162.107 167.751 162.09 167.762C161.485 168.161 160.802 168.425 160.086 168.537ZM161.234 167.746C160.568 167.746 159.869 167.811 159.712 168C159.703 168.015 159.698 168.032 159.698 168.049C159.698 168.066 159.703 168.083 159.712 168.098C159.721 168.145 159.742 168.188 159.772 168.225C159.802 168.262 159.841 168.291 159.885 168.309C160.189 168.434 160.871 168.228 161.733 167.767L161.234 167.746Z" fill="white"/>
<path d="M162.042 167.778C161.501 167.778 160.282 167.361 160.189 166.928C160.189 166.819 160.189 166.667 160.45 166.543C161.381 166.104 162.102 167.578 162.134 167.626C162.141 167.642 162.144 167.658 162.144 167.675C162.144 167.692 162.141 167.709 162.134 167.724C162.126 167.741 162.112 167.754 162.096 167.764C162.08 167.773 162.061 167.778 162.042 167.778ZM160.791 166.657C160.699 166.656 160.608 166.676 160.525 166.716C160.412 166.77 160.357 166.83 160.368 166.884C160.422 167.139 161.3 167.496 161.874 167.572C161.701 167.28 161.284 166.657 160.791 166.657Z" fill="white"/>
<path d="M159.773 65.3713L155.796 64.6724L157.849 69.3046C157.849 69.3046 161.495 69.3046 161.333 67.3975L159.773 65.3713Z" fill="#E4897B"/>
<path d="M152.789 66.9966L154.669 70.7403L157.828 69.2992L155.774 64.6724L152.789 66.9966Z" fill="#E4897B"/>
<path d="M164.154 159.245L158.157 164.896L156.223 162.821L163.087 156.569L164.154 159.245Z" fill="#3CAF00"/>
<path opacity="0.6" d="M164.154 159.245L158.157 164.896L156.223 162.821L163.087 156.569L164.154 159.245Z" fill="white"/>
<path d="M157.502 164.918H149.554L149.115 162.127L157.887 162.561L157.502 164.918Z" fill="#3CAF00"/>
<path opacity="0.6" d="M157.502 164.918H149.554L149.115 162.127L157.887 162.561L157.502 164.918Z" fill="white"/>
<path d="M161.609 33.4931C165.401 34.0349 169.286 47.2109 169.286 47.2109L161.159 51.7185C161.159 51.7185 157.86 45.4555 156.283 40.8071C154.631 35.9365 157.551 32.8971 161.609 33.4931Z" fill="#3CAF00"/>
<path opacity="0.7" d="M161.609 33.4931C165.401 34.0349 169.286 47.2109 169.286 47.2109L161.159 51.7185C161.159 51.7185 157.86 45.4555 156.283 40.8071C154.631 35.9365 157.551 32.8971 161.609 33.4931Z" fill="white"/>
<path opacity="0.2" d="M147.972 35.0155L146.347 36.7438L147.143 38.4124L148.438 38.472L149.543 36.8792L147.972 35.0155Z" fill="black"/>
<path d="M147.284 38.1145C147.284 38.1145 144.201 50.8842 144.082 53.5389C143.914 57.1904 145.442 63.4263 145.442 63.4263C145.442 63.4263 147.609 58.2415 148.053 53.4251C148.498 48.6087 148.167 40.8179 148.368 38.1145H147.284Z" fill="#3CAF00"/>
<path opacity="0.2" d="M147.284 38.1145C147.284 38.1145 144.201 50.8842 144.082 53.5389C143.914 57.1904 145.442 63.4263 145.442 63.4263C145.442 63.4263 147.609 58.2415 148.053 53.4251C148.498 48.6087 148.167 40.8179 148.368 38.1145H147.284Z" fill="black"/>
<path d="M147.972 35.0155C148.589 36.0149 148.947 37.1528 149.012 38.3257C149.012 38.3257 155.773 35.9419 155.454 32.4475C155.454 32.4475 154.495 31.8786 153.888 31.4181C153.888 31.4181 153.66 33.6177 147.972 35.0155Z" fill="#3CAF00"/>
<path opacity="0.6" d="M147.972 35.0155C148.589 36.0149 148.947 37.1528 149.012 38.3257C149.012 38.3257 155.773 35.9419 155.454 32.4475C155.454 32.4475 154.495 31.8786 153.888 31.4181C153.888 31.4181 153.66 33.6177 147.972 35.0155Z" fill="white"/>
<path d="M147.972 35.0155C147.35 35.9616 146.902 37.011 146.65 38.1145C146.65 38.1145 143.589 36.0449 144.51 32.5937C145.071 32.3677 145.648 32.1865 146.238 32.052C146.238 32.052 145.837 34.2841 147.972 35.0155Z" fill="#3CAF00"/>
<path opacity="0.6" d="M147.972 35.0155C147.35 35.9616 146.902 37.011 146.65 38.1145C146.65 38.1145 143.589 36.0449 144.51 32.5937C145.071 32.3677 145.648 32.1865 146.238 32.052C146.238 32.052 145.837 34.2841 147.972 35.0155Z" fill="white"/>
</svg>
